<?xml version="1.0" encoding="UTF-8" standalone="no"?>
<!DOCTYPE svg PUBLIC "-//W3C//DTD SVG 1.1//EN" "http://www.w3.org/Graphics/SVG/1.1/DTD/svg11.dtd">
<svg width="100%" height="100%" viewBox="0 0 2271 1543" version="1.1" xmlns="http://www.w3.org/2000/svg" xmlns:xlink="http://www.w3.org/1999/xlink" xml:space="preserve" xmlns:serif="http://www.serif.com/" style="fill-rule:evenodd;clip-rule:evenodd;stroke-linejoin:round;stroke-miterlimit:2;">
    <g transform="matrix(1,0,0,1,-29249.5,-27922.6)">
        <g transform="matrix(2.76905,0,0,2.76905,-18838,22313.9)">
            <g transform="matrix(0.610547,0,0,0.610547,5786.03,-1005.08)">
                <path d="M19483.6,4963.71L20309.9,4963.71L20309.9,5789.99L20005.8,5789.99L20005.8,5482.35C19875.6,5612.31 19745.2,5742.45 19745.2,5742.45C19662.7,5824.97 19548.6,5876.01 19422.8,5876.01C19171,5876.01 18966.7,5671.61 18966.7,5419.86C18966.7,5168.1 19171,4963.71 19422.8,4963.71L19422.8,5267.81C19338.9,5267.81 19270.8,5335.94 19270.8,5419.86C19270.8,5503.78 19338.9,5571.91 19422.8,5571.91C19464.8,5571.91 19502.8,5554.85 19530.3,5527.28L19790.3,5267.81L19483.6,5267.81L19483.6,4963.71Z" style="fill:white;"/>
            </g>
        </g>
    </g>
</svg>
