<?xml version="1.0" encoding="UTF-8" standalone="no"?><!DOCTYPE svg PUBLIC "-//W3C//DTD SVG 1.1//EN" "http://www.w3.org/Graphics/SVG/1.1/DTD/svg11.dtd"><svg width="100%" height="100%" viewBox="0 0 2271 1543" version="1.1" xmlns="http://www.w3.org/2000/svg" xmlns:xlink="http://www.w3.org/1999/xlink" xml:space="preserve" xmlns:serif="http://www.serif.com/"><path d="M874.007,0L2270.96,-0L2270.96,1396.94L1756.84,1396.94L1756.84,876.834C1536.72,1096.54 1316.28,1316.56 1316.28,1316.56C1176.69,1456.08 983.931,1542.37 771.183,1542.37C345.555,1542.37 0,1196.81 0,771.183C0,345.555 345.555,0 771.183,0L771.183,514.122C629.307,514.122 514.122,629.307 514.122,771.183C514.122,913.059 629.307,1028.24 771.183,1028.24C842.114,1028.24 906.355,999.407 952.967,952.795L1392.47,514.122L874.007,514.122L874.007,0Z"/></svg>