<?xml version="1.0" encoding="UTF-8" standalone="no"?>
<!DOCTYPE svg PUBLIC "-//W3C//DTD SVG 1.1//EN" "http://www.w3.org/Graphics/SVG/1.1/DTD/svg11.dtd">
<svg width="100%" height="100%" viewBox="0 0 309 410" version="1.1" xmlns="http://www.w3.org/2000/svg" xmlns:xlink="http://www.w3.org/1999/xlink" xml:space="preserve" xmlns:serif="http://www.serif.com/" style="fill-rule:evenodd;clip-rule:evenodd;stroke-linejoin:round;stroke-miterlimit:2;">
    <g transform="matrix(1,0,0,1,-2981.73,-6531.07)">
        <g transform="matrix(1,0,0,1,2153.17,48.9837)">
            <g transform="matrix(0.898407,0,0,0.898407,-26.29,5996.04)">
                <path d="M1258.21,837.233C1258.21,841.315 1249.18,864.228 1248.33,885.542C1247.7,901.441 1254.17,921.29 1254.69,936.037C1256.09,976.035 1238.32,990.657 1239.44,977.086C1241.79,948.733 1232.12,941.059 1232.12,941.059C1232.12,941.059 1188.5,998.617 1130.85,997.189C1076.07,995.831 1018.62,964.478 1000.37,903.187C979.456,832.975 953.988,843.674 951.587,764.675C949.717,703.18 987.9,670.556 1018.61,616.557C1042.73,574.153 1074.29,539.386 1145.65,542.432C1198.54,544.688 1204.17,568.888 1238.87,568.345C1258.65,568.035 1280.3,533.694 1293.84,542.433C1300.9,546.993 1272.26,559.154 1259.66,588.155C1254.71,599.549 1260.27,614.286 1257.78,637.371C1255.08,662.478 1245.14,667.983 1244.38,663.14C1240.12,636.048 1232.9,562.292 1146.45,555.606C1098.13,551.869 1040.51,599.814 1040.73,762.359C1040.94,917.362 1063.76,976.43 1128.23,979.653C1209.81,983.733 1227.44,915.596 1229.96,895.047C1234.67,856.744 1258.22,822.411 1258.21,837.233Z" style="fill:white;"/>
            </g>
        </g>
    </g>
</svg>
