<?xml version="1.0" encoding="UTF-8" standalone="no"?>
<!DOCTYPE svg PUBLIC "-//W3C//DTD SVG 1.1//EN" "http://www.w3.org/Graphics/SVG/1.1/DTD/svg11.dtd">
<svg width="100%" height="100%" viewBox="0 0 2927 320" version="1.1" xmlns="http://www.w3.org/2000/svg" xmlns:xlink="http://www.w3.org/1999/xlink" xml:space="preserve" xmlns:serif="http://www.serif.com/" style="fill-rule:evenodd;clip-rule:evenodd;stroke-linejoin:round;stroke-miterlimit:2;">
    <g transform="matrix(1,0,0,1,-360,-1243.86)">
        <g transform="matrix(1,0,0,1,40,693.875)">
            <g transform="matrix(1,0,0,1,-7.46011,-1045.98)">
                <text x="616.393px" y="1849.18px" style="font-family:'Montserrat-SemiBold', 'Montserrat';font-weight:600;font-size:266.667px;fill:white;">T</text>
            </g>
            <g transform="matrix(1,0,0,1,2195.51,-1045.98)">
                <text x="616.393px" y="1849.18px" style="font-family:'Montserrat-SemiBold', 'Montserrat';font-weight:600;font-size:266.667px;fill:white;">O</text>
            </g>
            <g transform="matrix(1,0,0,1,132.305,-1045.98)">
                <text x="616.393px" y="1849.18px" style="font-family:'Montserrat-SemiBold', 'Montserrat';font-weight:600;font-size:266.667px;fill:white;">O</text>
            </g>
            <g transform="matrix(1,0,0,1,337.108,-1045.98)">
                <text x="616.393px" y="1849.18px" style="font-family:'Montserrat-SemiBold', 'Montserrat';font-weight:600;font-size:266.667px;fill:white;">N</text>
            </g>
            <g transform="matrix(1,0,0,1,1186.41,-1045.98)">
                <text x="616.393px" y="1849.18px" style="font-family:'Montserrat-SemiBold', 'Montserrat';font-weight:600;font-size:266.667px;fill:white;">N</text>
            </g>
            <g transform="matrix(1,0,0,1,540.807,-1045.31)">
                <text x="616.393px" y="1849.18px" style="font-family:'Montserrat-SemiBold', 'Montserrat';font-weight:600;font-size:266.667px;fill:white;">G</text>
            </g>
            <g transform="matrix(1,0,0,1,1023.21,-1045.98)">
                <text x="616.393px" y="1849.18px" style="font-family:'Montserrat-SemiBold', 'Montserrat';font-weight:600;font-size:266.667px;fill:white;">Y</text>
            </g>
            <g transform="matrix(1,0,0,1,1378.11,-1045.98)">
                <text x="616.393px" y="1849.18px" style="font-family:'Montserrat-SemiBold', 'Montserrat';font-weight:600;font-size:266.667px;fill:white;">L</text>
            </g>
            <g transform="matrix(1,0,0,1,1541.01,-1045.98)">
                <text x="616.393px" y="1849.18px" style="font-family:'Montserrat-SemiBold', 'Montserrat';font-weight:600;font-size:266.667px;fill:white;">A</text>
            </g>
            <g transform="matrix(1,0,0,1,724.315,-1045.98)">
                <text x="616.393px" y="1849.18px" style="font-family:'Montserrat-SemiBold', 'Montserrat';font-weight:600;font-size:266.667px;fill:white;">W</text>
            </g>
            <g transform="matrix(1,0,0,1,1733.53,-1045.98)">
                <text x="616.393px" y="1849.18px" style="font-family:'Montserrat-SemiBold', 'Montserrat';font-weight:600;font-size:266.667px;fill:white;">I</text>
            </g>
            <g transform="matrix(1,0,0,1,1800.73,-1045.98)">
                <text x="616.393px" y="1849.18px" style="font-family:'Montserrat-SemiBold', 'Montserrat';font-weight:600;font-size:266.667px;fill:white;">S</text>
            </g>
            <g transform="matrix(1,0,0,1,1958.54,-1045.98)">
                <text x="616.393px" y="1849.18px" style="font-family:'Montserrat-SemiBold', 'Montserrat';font-weight:600;font-size:266.667px;fill:white;">.</text>
            </g>
            <g transform="matrix(1,0,0,1,2012.51,-1045.98)">
                <text x="616.393px" y="1849.18px" style="font-family:'Montserrat-SemiBold', 'Montserrat';font-weight:600;font-size:266.667px;fill:white;">C</text>
            </g>
            <g transform="matrix(1,0,0,1,2400.31,-1045.98)">
                <text x="616.393px" y="1849.18px" style="font-family:'Montserrat-SemiBold', 'Montserrat';font-weight:600;font-size:266.667px;fill:white;">M</text>
            </g>
        </g>
        <g transform="matrix(1.00328,0,0,1.0167,58.1318,691.128)">
            <g transform="matrix(1,0,0,1,257.902,343.359)">
                <path d="M157.607,200.293L42.98,429.196L57.308,457.809L157.606,257.519L257.901,457.811L272.229,429.198L157.607,200.293Z" style="fill:white;"/>
            </g>
            <g transform="matrix(1,0,0,1,257.902,343.359)">
                <path d="M157.606,314.745L71.636,486.423L85.964,515.036L157.605,371.971L229.244,515.037L243.572,486.424L157.606,314.745Z" style="fill:white;"/>
            </g>
        </g>
    </g>
</svg>
