<?xml version="1.0" encoding="UTF-8" standalone="no"?>
<!DOCTYPE svg PUBLIC "-//W3C//DTD SVG 1.1//EN" "http://www.w3.org/Graphics/SVG/1.1/DTD/svg11.dtd">
<svg width="100%" height="100%" viewBox="0 0 351 21" version="1.1" xmlns="http://www.w3.org/2000/svg" xmlns:xlink="http://www.w3.org/1999/xlink" xml:space="preserve" xmlns:serif="http://www.serif.com/" style="fill-rule:evenodd;clip-rule:evenodd;stroke-linejoin:round;stroke-miterlimit:2;">
    <g transform="matrix(1,0,0,1,-2619.13,-1972.3)">
        <g transform="matrix(1.0713,0,0,1.1127,1049.36,-743.11)">
            <g transform="matrix(0.0209853,0,0,0.0202044,1067.28,2340.13)">
                <path d="M19483.6,4963.71L20309.9,4963.71L20309.9,5789.99L20005.8,5789.99L20005.8,5482.35L19745.2,5742.45C19662.7,5824.97 19548.6,5876.01 19422.8,5876.01C19171,5876.01 18966.7,5671.61 18966.7,5419.86C18966.7,5168.1 19171,4963.71 19422.8,4963.71L19422.8,5267.81C19338.9,5267.81 19270.8,5335.94 19270.8,5419.86C19270.8,5503.78 19338.9,5571.91 19422.8,5571.91C19464.8,5571.91 19502.8,5554.85 19530.3,5527.28L19790.3,5267.81L19483.6,5267.81L19483.6,4963.71ZM25270.6,5513.55L25270.6,5865.52L25080.6,5865.52L25080.6,4979.27L25679.5,4979.27L25679.5,5150.19L25270.6,5150.19L25270.6,5350.23L25626.3,5350.23L25626.3,5513.55L25270.6,5513.55ZM26053,5513.55L26053,5865.52L25863.1,5865.52L25863.1,4979.27L26461.9,4979.27L26461.9,5150.19L26053,5150.19L26053,5350.23L26408.7,5350.23L26408.7,5513.55L26053,5513.55ZM21821,5679.4L21750.9,5865.52L21562.2,5865.52L21910.4,4979.27L22080.1,4979.27L22425.7,5865.52L22230.7,5865.52L22161.1,5679.4L21821,5679.4ZM22104.3,5527.47L22052.2,5388.21C22047.1,5374.7 22041,5357.4 22033.8,5336.3C22026.7,5315.2 22019.3,5292.83 22011.7,5269.2C22004.7,5247.59 21998.1,5226.86 21991.9,5207.02C21985.6,5227.54 21979.1,5248.48 21972.4,5269.83C21965.7,5291.35 21958.5,5312.24 21950.9,5332.5C21943.3,5352.76 21936.1,5372.59 21929.4,5392.01L21878.3,5527.47L22104.3,5527.47ZM22879.7,5547.73L22739.7,5547.73L22739.7,5865.52L22556.1,5865.52L22556.1,4979.27L22948.6,4979.27C23003.4,4979.27 23053.2,4991.72 23098,5016.61C23142.7,5041.51 23177.9,5075.07 23203.7,5117.27C23229.4,5159.47 23242.3,5207.58 23242.3,5261.6C23242.3,5314.78 23229.4,5363.1 23203.7,5406.57C23177.9,5450.03 23142.7,5484.43 23098,5509.75C23091.5,5513.41 23084.9,5516.82 23078.2,5519.95L23279,5866.78L23058.7,5865.52L22879.7,5547.73ZM22739.7,5393.27L22939.7,5393.27C22962.5,5393.27 22982.5,5388 22999.9,5377.44C23017.2,5366.89 23030.5,5352.12 23039.7,5333.13C23049,5314.14 23053.7,5292.83 23053.7,5269.2C23053.7,5243.88 23048.2,5221.93 23037.2,5203.36C23026.2,5184.79 23010.2,5170.23 22989.1,5159.68C22968,5149.13 22943.5,5143.86 22915.7,5143.86L22739.7,5143.86L22739.7,5393.27ZM27792.1,5547.73L27652,5547.73L27652,5865.52L27468.5,5865.52L27468.5,4979.27L27860.9,4979.27C27915.8,4979.27 27965.6,4991.72 28010.3,5016.61C28055.1,5041.51 28090.3,5075.07 28116,5117.27C28141.8,5159.47 28154.7,5207.58 28154.7,5261.6C28154.7,5314.78 28141.8,5363.1 28116,5406.57C28090.3,5450.03 28055.1,5484.43 28010.3,5509.75C28003.9,5513.41 27997.3,5516.82 27990.6,5519.95L28191.4,5866.78L27971.1,5865.52L27792.1,5547.73ZM27652,5393.27L27852.1,5393.27C27874.9,5393.27 27894.9,5388 27912.2,5377.44C27929.5,5366.89 27942.8,5352.12 27952.1,5333.13C27961.4,5314.14 27966,5292.83 27966,5269.2C27966,5243.88 27960.5,5221.93 27949.6,5203.36C27938.6,5184.79 27922.5,5170.23 27901.4,5159.68C27880.3,5149.13 27855.9,5143.86 27828,5143.86L27652,5143.86L27652,5393.27ZM28513.5,5679.4L28443.3,5865.52L28254.7,5865.52L28602.9,4979.27L28772.5,4979.27L29118.1,5865.52L28923.2,5865.52L28853.6,5679.4L28513.5,5679.4ZM28796.7,5527.47L28744.7,5388.21C28739.6,5374.7 28733.5,5357.4 28726.3,5336.3C28719.1,5315.2 28711.7,5292.83 28704.1,5269.2C28697.2,5247.59 28690.6,5226.86 28684.4,5207.02C28678.1,5227.54 28671.6,5248.48 28664.9,5269.83C28658.1,5291.35 28651,5312.24 28643.4,5332.5C28635.8,5352.76 28628.6,5372.59 28621.8,5392.01L28570.8,5527.47L28796.7,5527.47ZM33875,5295.57C33876.6,5313.44 33878,5331.45 33879.2,5349.59C33883,5409.1 33884.9,5479.79 33884.9,5561.66L33884.9,5865.52L33698.8,5865.52L33698.8,4979.27L33872.2,4979.27L34138.1,5411.98L34407.8,4979.27L34573.6,4979.27L34573.6,5865.52L34387.5,5865.52L34387.5,5561.66C34387.5,5485.69 34389.4,5417.33 34393.2,5356.56C34394.6,5335.35 34396.2,5314.19 34398.2,5293.08L34176.1,5637.62L34092.5,5637.62L33875,5295.57ZM21178.6,5878.18C21113.6,5878.18 21053.9,5866.99 20999.5,5844.62C20945,5822.26 20897.8,5790.61 20857.7,5749.67C20817.6,5708.73 20786.5,5660.2 20764.6,5604.07C20742.7,5547.94 20731.7,5486.54 20731.7,5419.86C20731.7,5354.87 20743.1,5294.73 20765.9,5239.44C20788.7,5184.16 20820.7,5136.05 20862.1,5095.11C20903.5,5054.18 20952,5022.31 21007.7,4999.52C21063.4,4976.73 21123.7,4965.34 21188.7,4965.34C21230.9,4965.34 21272.5,4971.04 21313.4,4982.43C21354.4,4993.83 21391.9,5010.49 21426.1,5032.44C21460.3,5054.39 21489.6,5080.55 21514.1,5110.94L21395.1,5242.61C21375.7,5222.35 21355,5204.84 21333.1,5190.07C21311.1,5175.3 21288.1,5163.9 21264.1,5155.88C21240,5147.86 21214.5,5143.86 21187.5,5143.86C21151.2,5143.86 21117.2,5150.61 21085.6,5164.11C21053.9,5177.62 21026.3,5196.4 21002.6,5220.45C20979,5244.51 20960.2,5273.63 20946.3,5307.81C20932.4,5341.99 20925.4,5379.77 20925.4,5421.12C20925.4,5463.33 20932.1,5501.52 20945.7,5535.7C20959.2,5569.89 20978.1,5599.01 21002.6,5623.06C21027.1,5647.12 21056.4,5665.69 21090.6,5678.77C21124.8,5691.85 21162.6,5698.39 21203.9,5698.39C21230.9,5698.39 21257.1,5694.6 21282.4,5687C21307.7,5679.4 21331.2,5668.85 21352.7,5655.35C21374.2,5641.84 21393.4,5626.23 21410.3,5608.5L21504,5756.63C21482.9,5779.42 21455.2,5800.1 21421.1,5818.67C21386.9,5837.24 21348.7,5851.8 21306.5,5862.35C21264.3,5872.9 21221.7,5878.18 21178.6,5878.18ZM23448.7,5865.52L23448.7,4979.27L23812,4979.27C23877,4979.27 23935.9,4990.03 23988.7,5011.55C24041.4,5033.07 24087,5063.46 24125.4,5102.71C24163.8,5141.96 24193.1,5188.59 24213.4,5242.61C24233.6,5296.63 24243.8,5356.56 24243.8,5422.39C24243.8,5487.38 24233.6,5547.1 24213.4,5601.54C24193.1,5655.98 24164,5702.82 24126,5742.07C24088,5781.32 24042.5,5811.71 23989.3,5833.23C23936.1,5854.75 23877,5865.52 23812,5865.52L23448.7,5865.52ZM23638.6,5150.19L23638.6,5694.6L23805.7,5694.6C23843.7,5694.6 23877.9,5688.05 23908.3,5674.97C23938.6,5661.89 23964.6,5643.74 23986.1,5620.53C24007.6,5597.32 24023.9,5568.83 24034.9,5535.07C24045.8,5501.31 24051.3,5463.75 24051.3,5422.39C24051.3,5381.03 24045.8,5343.68 24034.9,5310.34C24023.9,5277 24007.6,5248.52 23986.1,5224.88C23964.6,5201.25 23938.6,5182.89 23908.3,5169.81C23877.9,5156.73 23843.7,5150.19 23805.7,5150.19L23638.6,5150.19ZM24380.5,5865.52L24380.5,5702.19L24528.6,5702.19L24528.6,5142.59L24380.5,5142.59L24380.5,4979.27L24866.7,4979.27L24866.7,5142.59L24718.5,5142.59L24718.5,5702.19L24866.7,5702.19L24866.7,5865.52L24380.5,5865.52ZM26849.3,5865.52L26849.3,5150.19L26591.1,5150.19L26591.1,4979.27L27305.1,4979.27L27305.1,5150.19L27039.3,5150.19L27039.3,5865.52L26849.3,5865.52ZM29225.8,5865.52L29225.8,5702.19L29373.9,5702.19L29373.9,5142.59L29225.8,5142.59L29225.8,4979.27L29711.9,4979.27L29711.9,5142.59L29563.8,5142.59L29563.8,5702.19L29711.9,5702.19L29711.9,5865.52L29225.8,5865.52ZM29925.9,5865.52L29925.9,4979.27L30115.8,4979.27L30115.8,5694.6L30517.1,5694.6L30517.1,5865.52L29925.9,5865.52ZM30986.9,5878.18C30932,5878.18 30882,5871.42 30836.8,5857.92C30791.7,5844.41 30751.6,5824.58 30716.6,5798.41C30681.5,5772.25 30650.1,5740.6 30622.2,5703.46L30741.2,5567.99C30782.6,5625.38 30823.7,5664.42 30864.7,5685.1C30905.6,5705.78 30950.1,5716.12 30998.3,5716.12C31024.4,5716.12 31047.8,5712.32 31068.5,5704.72C31089.2,5697.13 31105.5,5686.79 31117.3,5673.71C31129.1,5660.62 31135,5644.8 31135,5626.23C31135,5612.72 31132,5600.27 31126.1,5588.88C31120.2,5577.48 31111.8,5567.36 31100.8,5558.49C31089.8,5549.63 31076.8,5541.61 31061.6,5534.44C31046.4,5527.26 31029.5,5520.93 31010.9,5515.45C30992.3,5509.96 30972.1,5505.53 30950.1,5502.15C30902.9,5491.18 30861.5,5477.89 30826.1,5462.27C30790.6,5446.66 30761.1,5427.24 30737.4,5404.03C30713.8,5380.82 30696.3,5354.44 30684.9,5324.9C30673.5,5295.36 30667.8,5262.02 30667.8,5224.88C30667.8,5186.9 30676.3,5151.66 30693.1,5119.17C30710,5086.67 30733.4,5058.61 30763.4,5034.97C30793.4,5011.34 30828,4993.19 30867.2,4980.53C30906.5,4967.87 30948,4961.54 30991.9,4961.54C31045.9,4961.54 31093.2,4967.45 31133.7,4979.27C31174.2,4991.08 31209.5,5008.6 31239.4,5031.81C31269.4,5055.02 31294.5,5083.08 31314.8,5116L31194.5,5232.48C31176.8,5208.85 31157.6,5189.01 31136.9,5172.98C31116.2,5156.94 31093.8,5144.91 31069.8,5136.89C31045.7,5128.87 31021,5124.86 30995.7,5124.86C30967.9,5124.86 30943.8,5128.45 30923.6,5135.63C30903.3,5142.8 30887.5,5153.35 30876.1,5167.28C30864.7,5181.2 30859,5197.45 30859,5216.02C30859,5231.21 30862.8,5244.72 30870.4,5256.53C30878,5268.35 30889,5278.69 30903.3,5287.55C30917.6,5296.42 30935,5304.22 30955.2,5310.98C30975.5,5317.73 30997.8,5323.64 31022.3,5328.7C31068.7,5337.99 31110.5,5350.23 31147.7,5365.42C31184.8,5380.61 31216.7,5398.97 31243.2,5420.49C31269.8,5442.02 31290.3,5467.34 31304.6,5496.46C31319,5525.57 31326.2,5558.28 31326.2,5594.58C31326.2,5654.5 31311.8,5705.57 31283.1,5747.77C31254.4,5789.97 31214.8,5822.26 31164.1,5844.62C31113.5,5866.99 31054.4,5878.18 30986.9,5878.18ZM31546.5,5879.44C31513.5,5879.44 31488.2,5870.16 31470.5,5851.59C31452.8,5833.02 31443.9,5806.43 31443.9,5771.83C31443.9,5740.6 31453.4,5715.06 31472.4,5695.23C31491.4,5675.39 31516.1,5665.48 31546.5,5665.48C31578.5,5665.48 31603.4,5674.76 31621.2,5693.33C31638.9,5711.9 31647.8,5738.06 31647.8,5771.83C31647.8,5803.9 31638.5,5829.85 31619.9,5849.69C31601.3,5869.53 31576.9,5879.44 31546.5,5879.44ZM32187.1,5878.18C32122.1,5878.18 32062.4,5866.99 32007.9,5844.62C31953.5,5822.26 31906.2,5790.61 31866.1,5749.67C31826.1,5708.73 31795,5660.2 31773.1,5604.07C31751.1,5547.94 31740.2,5486.54 31740.2,5419.86C31740.2,5354.87 31751.6,5294.73 31774.4,5239.44C31797.1,5184.16 31829.2,5136.05 31870.6,5095.11C31911.9,5054.18 31960.5,5022.31 32016.2,4999.52C32071.9,4976.73 32132.2,4965.34 32197.2,4965.34C32239.4,4965.34 32281,4971.04 32321.9,4982.43C32362.9,4993.83 32400.4,5010.49 32434.6,5032.44C32468.8,5054.39 32498.1,5080.55 32522.6,5110.94L32403.6,5242.61C32384.2,5222.35 32363.5,5204.84 32341.6,5190.07C32319.6,5175.3 32296.6,5163.9 32272.6,5155.88C32248.5,5147.86 32223,5143.86 32196,5143.86C32159.7,5143.86 32125.7,5150.61 32094,5164.11C32062.4,5177.62 32034.7,5196.4 32011.1,5220.45C31987.5,5244.51 31968.7,5273.63 31954.8,5307.81C31940.8,5341.99 31933.9,5379.77 31933.9,5421.12C31933.9,5463.33 31940.6,5501.52 31954.1,5535.7C31967.6,5569.89 31986.6,5599.01 32011.1,5623.06C32035.6,5647.12 32064.9,5665.69 32099.1,5678.77C32133.3,5691.85 32171.1,5698.39 32212.4,5698.39C32239.4,5698.39 32265.6,5694.6 32290.9,5687C32316.2,5679.4 32339.7,5668.85 32361.2,5655.35C32382.7,5641.84 32401.9,5626.23 32418.8,5608.5L32512.5,5756.63C32491.4,5779.42 32463.7,5800.1 32429.5,5818.67C32395.4,5837.24 32357.2,5851.8 32315,5862.35C32272.8,5872.9 32230.1,5878.18 32187.1,5878.18ZM33070.8,5878.18C33005,5878.18 32944.6,5866.78 32889.8,5843.99C32834.9,5821.2 32787,5789.34 32746.1,5748.4C32705.1,5707.47 32673.7,5658.94 32651.7,5602.81C32629.8,5546.68 32618.8,5485.69 32618.8,5419.86C32618.8,5353.18 32629.8,5291.98 32651.7,5236.28C32673.7,5180.57 32705.1,5132.25 32746.1,5091.31C32787,5050.38 32834.9,5018.51 32889.8,4995.73C32944.6,4972.94 33004.6,4961.54 33069.5,4961.54C33135.4,4961.54 33195.5,4972.94 33250,4995.73C33304.4,5018.51 33352.1,5050.59 33393,5091.95C33434,5133.3 33465.4,5181.84 33487.4,5237.54C33509.3,5293.25 33520.3,5354.02 33520.3,5419.86C33520.3,5485.69 33509.3,5546.47 33487.4,5602.17C33465.4,5657.88 33434,5706.41 33393,5747.77C33352.1,5789.13 33304.4,5821.2 33250,5843.99C33195.5,5866.78 33135.8,5878.18 33070.8,5878.18ZM33069.5,5698.39C33107.5,5698.39 33142.1,5691.43 33173.4,5677.5C33204.6,5663.58 33231.6,5644.16 33254.4,5619.27C33277.2,5594.36 33295.1,5565.03 33308.2,5531.27C33321.3,5497.51 33327.8,5460.37 33327.8,5419.86C33327.8,5379.34 33321.3,5342.21 33308.2,5308.44C33295.1,5274.68 33277.2,5245.35 33254.4,5220.45C33231.6,5195.55 33204.6,5176.14 33173.4,5162.21C33142.1,5148.29 33107.5,5141.32 33069.5,5141.32C33032.4,5141.32 32998.2,5148.29 32967,5162.21C32935.8,5176.14 32908.3,5195.55 32884.7,5220.45C32861.1,5245.35 32843.1,5274.68 32830.9,5308.44C32818.7,5342.21 32812.5,5379.34 32812.5,5419.86C32812.5,5460.37 32818.7,5497.51 32830.9,5531.27C32843.1,5565.03 32861.1,5594.36 32884.7,5619.27C32908.3,5644.16 32935.8,5663.58 32967,5677.5C32998.2,5691.43 33032.4,5698.39 33069.5,5698.39Z" />
            </g>
        </g>
    </g>
</svg>
