<?xml version="1.0" encoding="UTF-8" standalone="no"?>
<!DOCTYPE svg PUBLIC "-//W3C//DTD SVG 1.1//EN" "http://www.w3.org/Graphics/SVG/1.1/DTD/svg11.dtd">
<svg width="100%" height="100%" viewBox="0 0 287 31" version="1.1" xmlns="http://www.w3.org/2000/svg" xmlns:xlink="http://www.w3.org/1999/xlink" xml:space="preserve" xmlns:serif="http://www.serif.com/" style="fill-rule:evenodd;clip-rule:evenodd;stroke-linejoin:round;stroke-miterlimit:2;">
    <g transform="matrix(1,0,0,1,-2308.57,-1967.26)">
        <g transform="matrix(1.0713,0,0,1.1127,1049.36,-743.11)">
            <g transform="matrix(0.0628344,0,0,0.0604963,1115.62,2403.12)">
                <path d="M1258.21,837.233C1258.21,841.315 1249.18,864.228 1248.33,885.542C1247.7,901.441 1254.17,921.29 1254.69,936.037C1256.09,976.035 1238.32,990.657 1239.44,977.086C1241.79,948.733 1232.12,941.059 1232.12,941.059C1232.12,941.059 1188.5,998.617 1130.85,997.189C1076.07,995.831 1018.62,964.478 1000.37,903.187C979.456,832.975 953.988,843.674 951.587,764.675C949.717,703.18 987.9,670.556 1018.61,616.557C1042.73,574.153 1074.29,539.386 1145.65,542.432C1198.54,544.688 1204.17,568.888 1238.87,568.345C1258.65,568.035 1280.3,533.694 1293.84,542.433C1300.9,546.993 1272.26,559.154 1259.66,588.155C1254.71,599.549 1260.27,614.286 1257.78,637.371C1255.08,662.478 1245.14,667.983 1244.38,663.14C1240.12,636.048 1232.9,562.292 1146.45,555.606C1098.13,551.869 1040.51,599.814 1040.73,762.359C1040.94,917.362 1063.76,976.43 1128.23,979.653C1209.81,983.733 1227.44,915.596 1229.96,895.047C1234.67,856.744 1258.22,822.411 1258.21,837.233ZM1615.43,721.353C1612.12,700.211 1605.06,684.292 1594.23,673.594C1583.4,662.895 1569.08,657.419 1551.25,657.164C1538,657.164 1526.41,660.221 1516.48,666.334C1506.54,672.447 1498.33,680.598 1491.83,690.787C1485.34,700.976 1480.5,712.565 1477.32,725.556C1474.13,738.546 1472.54,751.919 1472.54,765.673C1472.54,787.579 1475.66,807.001 1481.9,823.94C1488.14,840.878 1497.25,854.187 1509.22,863.867C1521.19,873.546 1535.71,878.385 1552.78,878.385C1568.82,878.385 1584.74,874.246 1600.53,865.968C1616.33,857.69 1629.57,846.164 1640.27,831.39L1658.61,848.201C1646.13,865.267 1633.01,878.194 1619.26,886.982C1605.5,895.77 1592.07,901.692 1578.95,904.748C1565.83,907.805 1554.05,909.333 1543.61,909.333C1523.99,909.333 1506.16,905.831 1490.12,898.826C1474.07,891.822 1460.25,882.142 1448.66,869.789C1437.07,857.435 1428.15,843.043 1421.91,826.614C1415.67,810.185 1412.55,792.419 1412.55,773.315C1412.55,755.994 1415.36,738.801 1420.96,721.735C1426.56,704.669 1434.9,689.195 1445.99,675.313C1457.07,661.431 1471.01,650.351 1487.82,642.072C1504.63,633.794 1524.12,629.655 1546.28,629.655C1556.21,629.655 1567.1,631.247 1578.95,634.431C1590.79,637.615 1601.93,642.263 1612.38,648.377L1610.85,632.33L1640.27,632.33L1640.27,721.353L1615.43,721.353ZM1660.9,903.22L1660.9,876.857C1668.03,876.857 1673.77,874.819 1678.1,870.744C1682.42,866.668 1686.06,861.319 1688.98,854.697C1691.91,848.074 1694.78,840.942 1697.58,833.301L1772.09,628.891L1798.83,628.891L1880.21,837.121C1881.74,840.942 1883.78,846.737 1886.33,854.506C1888.87,862.275 1890.4,869.088 1890.91,874.947C1895.24,874.437 1899.38,874.119 1903.33,873.991C1907.28,873.864 1910.52,873.8 1913.07,873.8L1913.07,903.22L1810.29,903.22L1810.29,878.003C1817.42,878.003 1822.33,876.539 1825,873.609C1827.68,870.68 1828.89,866.668 1828.63,861.574C1828.38,856.48 1826.98,850.749 1824.43,844.381L1816.79,823.367L1733.88,824.895L1727.77,842.852C1726.49,846.164 1724.64,851.067 1722.23,857.562C1719.81,864.058 1717.58,869.47 1715.54,873.8C1719.61,873.291 1724.52,872.973 1730.25,872.845C1735.98,872.718 1740.12,872.654 1742.67,872.654L1742.67,903.22L1660.9,903.22ZM1743.43,796.239L1807.24,796.239L1789.66,748.48C1786.35,739.31 1783.42,730.077 1780.87,720.78C1778.33,711.483 1776.42,703.268 1775.14,696.136L1774.76,696.136L1770.17,715.622C1768.14,724.282 1764.95,734.598 1760.62,746.57L1743.43,796.239ZM2088.06,721.353C2085.77,707.089 2081.69,695.181 2075.83,685.629C2069.98,676.077 2062.53,668.881 2053.48,664.042C2044.44,659.202 2033.93,656.91 2021.96,657.164C2011.01,657.164 2001.39,660.221 1993.12,666.334C1984.84,672.447 1980.7,680.344 1980.7,690.023C1980.7,697.919 1982.93,704.796 1987.38,710.655C1991.84,716.513 1998.65,721.99 2007.83,727.084C2017,732.178 2028.59,737.655 2042.59,743.513C2052.27,747.334 2062.21,751.791 2072.4,756.886C2082.58,761.98 2092.01,768.03 2100.67,775.034C2109.33,782.039 2116.33,790.19 2121.68,799.487C2127.03,808.784 2129.71,819.673 2129.71,832.154C2129.71,847.183 2125.63,860.555 2117.48,872.272C2109.33,883.989 2097.93,893.095 2083.28,899.59C2068.64,906.086 2051.51,909.333 2031.9,909.333C2021.71,909.333 2010.69,907.741 1998.85,904.557C1987,901.373 1975.86,896.725 1965.41,890.612L1966.56,906.659L1937.14,906.659L1937.14,817.253L1962.36,817.253C1965.92,838.65 1974.14,854.76 1987,865.586C1999.87,876.411 2015.21,881.824 2033.04,881.824C2042.21,881.824 2050.24,880.168 2057.11,876.857C2063.99,873.546 2069.34,869.152 2073.16,863.675C2076.98,858.199 2078.89,852.277 2078.89,845.909C2078.89,836.994 2075.77,829.607 2069.53,823.749C2063.29,817.89 2055.52,812.923 2046.22,808.848C2036.93,804.772 2027.44,800.824 2017.76,797.004C2005.53,791.909 1994.13,786.496 1983.56,780.765C1972.99,775.034 1963.76,768.475 1955.86,761.089C1947.97,753.702 1941.85,745.232 1937.52,735.681C1933.19,726.129 1931.03,715.112 1931.03,702.631C1931.03,694.735 1932.56,686.52 1935.61,677.987C1938.67,669.454 1943.64,661.558 1950.51,654.299C1957.39,647.039 1966.56,641.117 1978.02,636.532C1989.49,631.947 2003.62,629.655 2020.43,629.655C2030.62,629.655 2041.77,631.183 2053.87,634.24C2065.96,637.296 2076.34,641.881 2085,647.995L2083.48,632.33L2113.28,632.33L2113.28,721.353L2088.06,721.353ZM2359.72,722.117C2359.72,708.362 2357.8,696.964 2353.99,687.921C2350.16,678.879 2344.75,672.129 2337.75,667.671C2330.74,663.214 2322.4,661.112 2312.72,661.367L2294.38,661.367L2294.38,840.56C2294.38,847.437 2294.25,854.06 2294,860.428C2293.74,866.796 2293.36,871.635 2292.85,874.947C2297.18,874.437 2302.72,874.119 2309.47,873.991C2316.22,873.864 2320.87,873.8 2323.42,873.8L2323.42,903.22L2211.85,903.22L2211.85,878.003C2217.71,877.749 2222.62,876.984 2226.56,875.711C2230.51,874.437 2233.57,871.508 2235.73,866.923C2237.9,862.338 2238.98,854.951 2238.98,844.763L2238.98,661.749L2221.41,661.749C2206.89,662.004 2195.42,666.971 2187.02,676.65C2178.61,686.329 2174.41,701.485 2174.41,722.117L2149.19,722.117L2151.1,635.768L2382.64,635.768L2384.93,722.117L2359.72,722.117ZM2540.44,811.14C2540.44,800.442 2538.78,792.737 2535.47,788.025C2532.16,783.313 2527.64,780.32 2521.91,779.046C2516.18,777.772 2509.87,777.263 2502.99,777.518L2493.06,777.9L2493.06,840.56C2493.06,847.437 2492.93,853.933 2492.68,860.046C2492.42,866.159 2492.04,870.871 2491.53,874.183L2542.73,874.183C2550.37,874.183 2557.76,872.463 2564.89,869.025C2572.02,865.586 2577.88,859.855 2582.47,851.831C2587.05,843.808 2589.34,832.919 2589.34,819.164L2614.18,819.164L2612.27,903.22L2410.53,903.22L2410.53,878.003C2416.39,877.749 2421.29,876.984 2425.24,875.711C2429.19,874.437 2432.25,871.508 2434.41,866.923C2436.58,862.338 2437.66,854.951 2437.66,844.763L2437.66,698.428C2437.66,691.551 2437.85,684.928 2438.23,678.561C2438.61,672.193 2438.93,667.353 2439.19,664.042C2435.11,664.296 2430.02,664.487 2423.9,664.615C2417.79,664.742 2413.33,664.933 2410.53,665.188L2410.53,635.768L2601.57,635.768L2603.86,709.891L2578.64,709.891C2578.64,695.881 2576.22,685.31 2571.39,678.178C2566.55,671.046 2560.56,666.27 2553.43,663.851C2546.3,661.431 2539.29,660.348 2532.41,660.603L2518.66,660.985C2513.31,660.985 2508.72,661.686 2504.9,663.087C2501.08,664.487 2498.15,667.544 2496.12,672.256C2494.08,676.969 2493.06,684.292 2493.06,694.226L2493.06,751.537L2537.76,751.537L2536.23,718.296L2565.65,718.296L2565.65,811.14L2540.44,811.14ZM2648.95,903.22L2648.95,878.003C2654.8,877.749 2659.71,876.984 2663.66,875.711C2667.6,874.437 2670.66,871.508 2672.83,866.923C2674.99,862.338 2676.07,854.951 2676.07,844.763L2676.07,698.428C2676.07,691.551 2676.26,684.928 2676.65,678.561C2677.03,672.193 2677.35,667.353 2677.6,664.042C2673.53,664.296 2668.43,664.487 2662.32,664.615C2656.2,664.742 2651.75,664.933 2648.95,665.188L2648.95,635.768L2758.6,635.768L2758.6,660.985C2753,661.24 2748.16,662.004 2744.08,663.278C2740.01,664.551 2736.89,667.417 2734.72,671.874C2732.56,676.332 2731.47,683.782 2731.47,694.226L2731.47,840.56C2731.47,847.437 2731.35,853.933 2731.09,860.046C2730.84,866.159 2730.45,870.871 2729.95,874.183L2781.14,874.183C2796.17,873.928 2807.95,868.642 2816.49,858.326C2825.02,848.01 2829.28,832.409 2829.28,811.522L2854.88,811.522L2852.59,903.22L2648.95,903.22ZM2879.72,903.22L2879.72,878.003C2885.58,877.749 2890.48,876.984 2894.43,875.711C2898.38,874.437 2901.43,871.508 2903.6,866.923C2905.76,862.338 2906.85,854.951 2906.85,844.763L2906.85,698.428C2906.85,691.551 2907.04,684.928 2907.42,678.561C2907.8,672.193 2908.12,667.353 2908.37,664.042C2904.3,664.296 2899.2,664.487 2893.09,664.615C2886.98,664.742 2882.52,664.933 2879.72,665.188L2879.72,635.768L2989.37,635.768L2989.37,660.985C2983.77,661.24 2978.93,662.004 2974.86,663.278C2970.78,664.551 2967.66,667.417 2965.49,671.874C2963.33,676.332 2962.25,683.782 2962.25,694.226L2962.25,840.56C2962.25,847.437 2962.12,853.933 2961.87,860.046C2961.61,866.159 2961.23,870.871 2960.72,874.183L3011.92,874.183C3026.95,873.928 3038.72,868.642 3047.26,858.326C3055.79,848.01 3060.06,832.409 3060.06,811.522L3085.66,811.522L3083.36,903.22L2879.72,903.22ZM3307.64,721.353C3304.33,700.211 3297.26,684.292 3286.44,673.594C3275.61,662.895 3261.28,657.419 3243.45,657.164C3230.21,657.164 3218.62,660.221 3208.68,666.334C3198.75,672.447 3190.54,680.598 3184.04,690.787C3177.55,700.976 3172.71,712.565 3169.52,725.556C3166.34,738.546 3164.75,751.919 3164.75,765.673C3164.75,787.579 3167.87,807.001 3174.11,823.94C3180.35,840.878 3189.45,854.187 3201.43,863.867C3213.4,873.546 3227.92,878.385 3244.98,878.385C3261.03,878.385 3276.95,874.246 3292.74,865.968C3308.53,857.69 3321.78,846.164 3332.48,831.39L3350.82,848.201C3338.34,865.267 3325.22,878.194 3311.46,886.982C3297.71,895.77 3284.27,901.692 3271.15,904.748C3258.04,907.805 3246.26,909.333 3235.81,909.333C3216.2,909.333 3198.37,905.831 3182.32,898.826C3166.27,891.822 3152.46,882.142 3140.87,869.789C3129.28,857.435 3120.36,843.043 3114.12,826.614C3107.88,810.185 3104.76,792.419 3104.76,773.315C3104.76,755.994 3107.56,738.801 3113.17,721.735C3118.77,704.669 3127.11,689.195 3138.19,675.313C3149.27,661.431 3163.22,650.351 3180.03,642.072C3196.84,633.794 3216.33,629.655 3238.49,629.655C3248.42,629.655 3259.31,631.247 3271.15,634.431C3283,637.615 3294.14,642.263 3304.59,648.377L3303.06,632.33L3332.48,632.33L3332.48,721.353L3307.64,721.353ZM3500.59,909.333C3476.39,909.333 3455.82,905.258 3438.88,897.107C3421.95,888.956 3408.26,878.067 3397.81,864.44C3387.37,850.812 3379.73,835.72 3374.89,819.164C3370.05,802.607 3367.63,786.051 3367.63,769.494C3367.63,753.447 3370.37,737.209 3375.84,720.78C3381.32,704.351 3389.6,689.259 3400.68,675.504C3411.76,661.749 3425.7,650.669 3442.51,642.263C3459.33,633.858 3479.07,629.655 3501.74,629.655C3524.91,629.655 3544.91,633.858 3561.72,642.263C3578.53,650.669 3592.29,661.813 3602.99,675.695C3613.68,689.577 3621.64,704.669 3626.87,720.971C3632.09,737.273 3634.7,753.447 3634.7,769.494C3634.7,785.287 3631.96,801.334 3626.48,817.636C3621.01,833.937 3612.73,849.029 3601.65,862.911C3590.57,876.793 3576.62,888.001 3559.81,896.534C3543,905.067 3523.26,909.333 3500.59,909.333ZM3504.79,881.442C3518.04,881.442 3529.12,878.194 3538.03,871.699C3546.95,865.204 3554.08,856.734 3559.43,846.291C3564.78,835.848 3568.6,824.449 3570.89,812.095C3573.18,799.742 3574.33,787.706 3574.33,775.989C3574.33,758.414 3572.8,742.367 3569.74,727.848C3566.69,713.329 3561.98,700.784 3555.61,690.214C3549.24,679.643 3541.15,671.492 3531.35,665.761C3521.54,660.03 3510.01,657.292 3496.77,657.546C3483.78,657.801 3472.83,661.303 3463.91,668.053C3454.99,674.803 3447.86,683.464 3442.51,694.035C3437.16,704.605 3433.34,716.131 3431.05,728.612C3428.76,741.093 3427.61,753.192 3427.61,764.909C3427.61,776.881 3428.95,789.617 3431.62,803.117C3434.3,816.617 3438.57,829.352 3444.42,841.324C3450.28,853.296 3458.18,862.975 3468.11,870.362C3478.05,877.749 3490.27,881.442 3504.79,881.442ZM3864.32,721.353C3861.01,700.211 3853.94,684.292 3843.12,673.594C3832.29,662.895 3817.97,657.419 3800.14,657.164C3786.89,657.164 3775.3,660.221 3765.37,666.334C3755.43,672.447 3747.22,680.598 3740.72,690.787C3734.23,700.976 3729.39,712.565 3726.2,725.556C3723.02,738.546 3721.43,751.919 3721.43,765.673C3721.43,787.579 3724.55,807.001 3730.79,823.94C3737.03,840.878 3746.14,854.187 3758.11,863.867C3770.08,873.546 3784.6,878.385 3801.66,878.385C3817.71,878.385 3833.63,874.246 3849.42,865.968C3865.22,857.69 3878.46,846.164 3889.16,831.39L3907.5,848.201C3895.02,865.267 3881.9,878.194 3868.14,886.982C3854.39,895.77 3840.95,901.692 3827.84,904.748C3814.72,907.805 3802.94,909.333 3792.49,909.333C3772.88,909.333 3755.05,905.831 3739,898.826C3722.96,891.822 3709.14,882.142 3697.55,869.789C3685.96,857.435 3677.04,843.043 3670.8,826.614C3664.56,810.185 3661.44,792.419 3661.44,773.315C3661.44,755.994 3664.24,738.801 3669.85,721.735C3675.45,704.669 3683.79,689.195 3694.87,675.313C3705.95,661.431 3719.9,650.351 3736.71,642.072C3753.52,633.794 3773.01,629.655 3795.17,629.655C3805.1,629.655 3815.99,631.247 3827.84,634.431C3839.68,637.615 3850.82,642.263 3861.27,648.377L3859.74,632.33L3889.16,632.33L3889.16,721.353L3864.32,721.353ZM3930.04,903.22L3930.04,878.003C3935.9,877.749 3940.8,876.984 3944.75,875.711C3948.7,874.437 3951.76,871.508 3953.92,866.923C3956.09,862.338 3957.17,854.951 3957.17,844.763L3957.17,698.428C3957.17,691.551 3957.36,684.928 3957.74,678.561C3958.12,672.193 3958.44,667.353 3958.7,664.042C3954.62,664.296 3949.53,664.487 3943.41,664.615C3937.3,664.742 3932.84,664.933 3930.04,665.188L3930.04,635.768L4039.7,635.768L4039.7,660.985C4034.09,661.24 4029.25,662.004 4025.18,663.278C4021.1,664.551 4017.98,667.417 4015.82,671.874C4013.65,676.332 4012.57,683.782 4012.57,694.226L4012.57,753.829L4117.64,753.829L4117.64,698.428C4117.64,691.551 4117.77,684.928 4118.02,678.561C4118.28,672.193 4118.66,667.353 4119.17,664.042C4115.09,664.296 4110,664.487 4103.89,664.615C4097.77,664.742 4093.31,664.933 4090.51,665.188L4090.51,635.768L4200.17,635.768L4200.17,660.985C4194.56,661.24 4189.72,662.004 4185.65,663.278C4181.57,664.551 4178.45,667.417 4176.29,671.874C4174.12,676.332 4173.04,683.782 4173.04,694.226L4173.04,840.56C4173.04,847.437 4172.91,854.06 4172.66,860.428C4172.4,866.796 4172.02,871.635 4171.51,874.947C4175.59,874.437 4180.74,874.119 4186.99,873.991C4193.23,873.864 4197.62,873.8 4200.17,873.8L4200.17,903.22L4090.51,903.22L4090.51,878.003C4096.37,877.749 4101.27,876.984 4105.22,875.711C4109.17,874.437 4112.23,871.508 4114.39,866.923C4116.56,862.338 4117.64,854.951 4117.64,844.763L4117.64,782.867L4012.57,784.013L4012.57,840.56C4012.57,847.437 4012.44,854.06 4012.19,860.428C4011.93,866.796 4011.55,871.635 4011.04,874.947C4015.12,874.437 4020.27,874.119 4026.51,873.991C4032.76,873.864 4037.15,873.8 4039.7,873.8L4039.7,903.22L3930.04,903.22ZM4264.36,909.333C4255.95,909.333 4249.14,906.404 4243.91,900.546C4238.69,894.687 4236.08,887.682 4236.08,879.532C4236.08,871.381 4238.88,864.376 4244.49,858.517C4250.09,852.659 4256.59,849.73 4263.97,849.73C4271.87,849.73 4278.43,852.659 4283.65,858.517C4288.87,864.376 4291.48,871.381 4291.48,879.532C4291.48,887.682 4289,894.687 4284.03,900.546C4279.07,906.404 4272.51,909.333 4264.36,909.333ZM4516.53,721.353C4513.21,700.211 4506.15,684.292 4495.32,673.594C4484.49,662.895 4470.17,657.419 4452.34,657.164C4439.09,657.164 4427.5,660.221 4417.57,666.334C4407.63,672.447 4399.42,680.598 4392.92,690.787C4386.43,700.976 4381.59,712.565 4378.4,725.556C4375.22,738.546 4373.63,751.919 4373.63,765.673C4373.63,787.579 4376.75,807.001 4382.99,823.94C4389.23,840.878 4398.34,854.187 4410.31,863.867C4422.28,873.546 4436.8,878.385 4453.86,878.385C4469.91,878.385 4485.83,874.246 4501.62,865.968C4517.42,857.69 4530.66,846.164 4541.36,831.39L4559.7,848.201C4547.22,865.267 4534.1,878.194 4520.35,886.982C4506.59,895.77 4493.15,901.692 4480.04,904.748C4466.92,907.805 4455.14,909.333 4444.69,909.333C4425.08,909.333 4407.25,905.831 4391.2,898.826C4375.16,891.822 4361.34,882.142 4349.75,869.789C4338.16,857.435 4329.24,843.043 4323,826.614C4316.76,810.185 4313.64,792.419 4313.64,773.315C4313.64,755.994 4316.44,738.801 4322.05,721.735C4327.65,704.669 4335.99,689.195 4347.07,675.313C4358.15,661.431 4372.1,650.351 4388.91,642.072C4405.72,633.794 4425.21,629.655 4447.37,629.655C4457.3,629.655 4468.19,631.247 4480.04,634.431C4491.88,637.615 4503.03,642.263 4513.47,648.377L4511.94,632.33L4541.36,632.33L4541.36,721.353L4516.53,721.353ZM4709.47,909.333C4685.27,909.333 4664.71,905.258 4647.77,897.107C4630.83,888.956 4617.14,878.067 4606.69,864.44C4596.25,850.812 4588.61,835.72 4583.77,819.164C4578.93,802.607 4576.51,786.051 4576.51,769.494C4576.51,753.447 4579.25,737.209 4584.73,720.78C4590.2,704.351 4598.48,689.259 4609.56,675.504C4620.64,661.749 4634.59,650.669 4651.4,642.263C4668.21,633.858 4687.95,629.655 4710.62,629.655C4733.8,629.655 4753.79,633.858 4770.6,642.263C4787.41,650.669 4801.17,661.813 4811.87,675.695C4822.57,689.577 4830.53,704.669 4835.75,720.971C4840.97,737.273 4843.58,753.447 4843.58,769.494C4843.58,785.287 4840.84,801.334 4835.37,817.636C4829.89,833.937 4821.61,849.029 4810.53,862.911C4799.45,876.793 4785.51,888.001 4768.69,896.534C4751.88,905.067 4732.14,909.333 4709.47,909.333ZM4713.68,881.442C4726.92,881.442 4738,878.194 4746.92,871.699C4755.83,865.204 4762.96,856.734 4768.31,846.291C4773.66,835.848 4777.48,824.449 4779.77,812.095C4782.07,799.742 4783.21,787.706 4783.21,775.989C4783.21,758.414 4781.68,742.367 4778.63,727.848C4775.57,713.329 4770.86,700.784 4764.49,690.214C4758.12,679.643 4750.04,671.492 4740.23,665.761C4730.42,660.03 4718.9,657.292 4705.65,657.546C4692.66,657.801 4681.71,661.303 4672.79,668.053C4663.88,674.803 4656.75,683.464 4651.4,694.035C4646.05,704.605 4642.23,716.131 4639.94,728.612C4637.64,741.093 4636.5,753.192 4636.5,764.909C4636.5,776.881 4637.83,789.617 4640.51,803.117C4643.18,816.617 4647.45,829.352 4653.31,841.324C4659.17,853.296 4667.06,862.975 4677,870.362C4686.93,877.749 4699.16,881.442 4713.68,881.442ZM5008.25,907.041C4999.59,885.899 4991,864.885 4982.46,843.999C4973.93,823.112 4965.34,802.225 4956.67,781.338C4954.64,776.499 4952.03,769.685 4948.84,760.898C4945.66,752.11 4942.35,741.985 4938.91,730.523C4935.47,719.06 4932.35,707.216 4929.55,694.99C4930.06,709.254 4930.44,722.69 4930.69,735.299C4930.95,747.907 4930.95,759.942 4930.69,771.405L4930.69,788.598C4930.69,794.456 4930.63,800.251 4930.5,805.982C4930.38,811.713 4930.31,817.444 4930.31,823.176L4930.31,840.56C4930.31,847.437 4930.12,854.06 4929.74,860.428C4929.36,866.796 4928.91,871.635 4928.4,874.947C4932.73,874.437 4938.02,874.119 4944.26,873.991C4950.5,873.864 4954.89,873.8 4957.44,873.8L4957.44,903.22L4870.32,903.22L4870.32,878.003C4876.18,877.749 4881.09,876.984 4885.03,875.711C4888.98,874.437 4892.04,871.508 4894.2,866.923C4896.37,862.338 4897.45,854.951 4897.45,844.763L4899.74,698.428C4900,691.551 4900.26,684.928 4900.51,678.561C4900.76,672.193 4901.02,667.353 4901.27,664.042C4897.2,664.296 4892.1,664.487 4885.99,664.615C4879.88,664.742 4875.42,664.933 4872.62,665.188L4872.62,635.768L4957.06,635.768L5014.75,783.631C5017.04,789.489 5019.59,796.303 5022.39,804.072C5025.19,811.841 5027.87,819.355 5030.41,826.614C5032.96,833.874 5034.87,839.668 5036.15,843.999L5036.53,843.999C5039.84,835.084 5042.9,826.423 5045.7,818.018C5048.5,809.612 5051.43,801.461 5054.48,793.565C5064.42,767.074 5074.29,740.711 5084.1,714.475C5093.9,688.24 5103.77,662.004 5113.71,635.768L5201.97,635.768L5201.97,660.985C5196.36,661.24 5191.4,662.004 5187.07,663.278C5182.73,664.551 5179.49,667.417 5177.32,671.874C5175.16,676.332 5174.2,683.782 5174.46,694.226L5180.19,840.56C5180.7,847.437 5180.7,854.06 5180.19,860.428C5179.68,866.796 5179.17,871.635 5178.66,874.947C5182.99,874.437 5188.28,874.119 5194.52,873.991C5200.76,873.864 5205.15,873.8 5207.7,873.8L5207.7,903.22L5101.48,903.22L5101.48,878.003C5107.34,877.749 5112.37,876.984 5116.57,875.711C5120.78,874.437 5123.96,871.508 5126.12,866.923C5128.29,862.338 5129.12,854.951 5128.61,844.763L5125.55,763.763C5125.55,760.706 5125.3,755.421 5124.79,747.907C5124.28,740.393 5123.83,732.115 5123.45,723.072C5123.07,714.03 5122.75,705.56 5122.49,697.664C5121.73,699.447 5120.97,701.167 5120.2,702.822C5119.44,704.478 5118.8,706.197 5118.29,707.98L5043.79,907.041L5008.25,907.041Z" />
            </g>
        </g>
    </g>
</svg>
