<?xml version="1.0" encoding="UTF-8" standalone="no"?>
<!DOCTYPE svg PUBLIC "-//W3C//DTD SVG 1.1//EN" "http://www.w3.org/Graphics/SVG/1.1/DTD/svg11.dtd">
<svg width="100%" height="100%" viewBox="0 0 287 31" version="1.1" xmlns="http://www.w3.org/2000/svg" xmlns:xlink="http://www.w3.org/1999/xlink" xml:space="preserve" xmlns:serif="http://www.serif.com/" style="fill-rule:evenodd;clip-rule:evenodd;stroke-linejoin:round;stroke-miterlimit:2;">
    <g transform="matrix(1,0,0,1,-1998,-1967.23)">
        <g transform="matrix(1.0713,0,0,1.1127,1049.36,-743.11)">
            <g transform="matrix(0.089743,0,0,0.0864037,858.628,2297.92)">
                <path d="M679.327,1691.85L617.46,1691.85L617.46,1662.51L775.86,1662.51L775.86,1691.85L713.993,1691.85L713.993,1849.18L679.327,1849.18L679.327,1691.85ZM2950.23,1851.85C2931.2,1851.85 2914.05,1847.71 2898.76,1839.45C2883.47,1831.18 2871.47,1819.71 2862.76,1805.05C2854.05,1790.38 2849.69,1773.98 2849.69,1755.85C2849.69,1737.71 2854.05,1721.31 2862.76,1706.65C2871.47,1691.98 2883.47,1680.51 2898.76,1672.25C2914.05,1663.98 2931.2,1659.85 2950.23,1659.85C2969.25,1659.85 2986.41,1663.98 3001.69,1672.25C3016.98,1680.51 3028.98,1691.94 3037.69,1706.51C3046.41,1721.09 3050.76,1737.54 3050.76,1755.85C3050.76,1774.16 3046.41,1790.6 3037.69,1805.18C3028.98,1819.76 3016.98,1831.18 3001.69,1839.45C2986.41,1847.71 2969.25,1851.85 2950.23,1851.85ZM2950.23,1821.45C2962.67,1821.45 2973.87,1818.65 2983.83,1813.05C2993.78,1807.45 3001.61,1799.62 3007.29,1789.58C3012.98,1779.54 3015.83,1768.29 3015.83,1755.85C3015.83,1743.4 3012.98,1732.16 3007.29,1722.11C3001.61,1712.07 2993.78,1704.25 2983.83,1698.65C2973.87,1693.05 2962.67,1690.25 2950.23,1690.25C2937.78,1690.25 2926.58,1693.05 2916.63,1698.65C2906.67,1704.25 2898.85,1712.07 2893.16,1722.11C2887.47,1732.16 2884.63,1743.4 2884.63,1755.85C2884.63,1768.29 2887.47,1779.54 2893.16,1789.58C2898.85,1799.62 2906.67,1807.45 2916.63,1813.05C2926.58,1818.65 2937.78,1821.45 2950.23,1821.45ZM868.425,1851.85C849.403,1851.85 832.248,1847.71 816.959,1839.45C801.67,1831.18 789.67,1819.71 780.959,1805.05C772.248,1790.38 767.892,1773.98 767.892,1755.85C767.892,1737.71 772.248,1721.31 780.959,1706.65C789.67,1691.98 801.67,1680.51 816.959,1672.25C832.248,1663.98 849.403,1659.85 868.425,1659.85C887.448,1659.85 904.603,1663.98 919.892,1672.25C935.181,1680.51 947.181,1691.94 955.892,1706.51C964.603,1721.09 968.959,1737.54 968.959,1755.85C968.959,1774.16 964.603,1790.6 955.892,1805.18C947.181,1819.76 935.181,1831.18 919.892,1839.45C904.603,1847.71 887.448,1851.85 868.425,1851.85ZM868.425,1821.45C880.87,1821.45 892.07,1818.65 902.025,1813.05C911.981,1807.45 919.803,1799.62 925.492,1789.58C931.181,1779.54 934.025,1768.29 934.025,1755.85C934.025,1743.4 931.181,1732.16 925.492,1722.11C919.803,1712.07 911.981,1704.25 902.025,1698.65C892.07,1693.05 880.87,1690.25 868.425,1690.25C855.981,1690.25 844.781,1693.05 834.825,1698.65C824.87,1704.25 817.048,1712.07 811.359,1722.11C805.67,1732.16 802.825,1743.4 802.825,1755.85C802.825,1768.29 805.67,1779.54 811.359,1789.58C817.048,1799.62 824.87,1807.45 834.825,1813.05C844.781,1818.65 855.981,1821.45 868.425,1821.45ZM1159.32,1662.51L1159.32,1849.18L1130.79,1849.18L1027.86,1722.78L1027.86,1849.18L993.457,1849.18L993.457,1662.51L1021.99,1662.51L1124.92,1788.91L1124.92,1662.51L1159.32,1662.51ZM2019.63,1662.51L2019.63,1849.18L1991.1,1849.18L1888.17,1722.78L1888.17,1849.18L1853.77,1849.18L1853.77,1662.51L1882.3,1662.51L1985.24,1788.91L1985.24,1662.51L2019.63,1662.51ZM1324.62,1753.71L1357.42,1753.71L1357.42,1828.11C1347.82,1835.76 1336.62,1841.62 1323.82,1845.71C1311.02,1849.8 1297.87,1851.85 1284.36,1851.85C1265.33,1851.85 1248.18,1847.71 1232.89,1839.45C1217.6,1831.18 1205.6,1819.76 1196.89,1805.18C1188.18,1790.6 1183.82,1774.16 1183.82,1755.85C1183.82,1737.54 1188.18,1721.09 1196.89,1706.51C1205.6,1691.94 1217.64,1680.51 1233.02,1672.25C1248.4,1663.98 1265.69,1659.85 1284.89,1659.85C1300.53,1659.85 1314.76,1662.42 1327.56,1667.58C1340.36,1672.74 1351.11,1680.29 1359.82,1690.25L1337.95,1711.58C1323.73,1697.36 1306.58,1690.25 1286.49,1690.25C1273.33,1690.25 1261.64,1693 1251.42,1698.51C1241.2,1704.03 1233.2,1711.76 1227.42,1721.71C1221.64,1731.67 1218.76,1743.05 1218.76,1755.85C1218.76,1768.29 1221.64,1779.49 1227.42,1789.45C1233.2,1799.4 1241.2,1807.23 1251.42,1812.91C1261.64,1818.6 1273.24,1821.45 1286.22,1821.45C1300.8,1821.45 1313.6,1818.25 1324.62,1811.85L1324.62,1753.71ZM1771.1,1783.31L1771.1,1849.18L1736.43,1849.18L1736.43,1783.85L1663.1,1662.51L1700.17,1662.51L1754.84,1753.45L1810.04,1662.51L1844.17,1662.51L1771.1,1783.31ZM2044.13,1662.51L2078.8,1662.51L2078.8,1819.85L2176.4,1819.85L2176.4,1849.18L2044.13,1849.18L2044.13,1662.51ZM2333.47,1805.98L2240.13,1805.98L2221.73,1849.18L2186,1849.18L2270,1662.51L2304.13,1662.51L2388.4,1849.18L2352.13,1849.18L2333.47,1805.98ZM2322,1778.78L2286.8,1697.18L2251.87,1778.78L2322,1778.78ZM1653.46,1662.51L1591.6,1849.18L1554.8,1849.18L1508.66,1711.05L1461.73,1849.18L1424.66,1849.18L1362.8,1662.51L1398.8,1662.51L1445.2,1804.38L1493.46,1662.51L1525.46,1662.51L1572.66,1805.18L1620.4,1662.51L1653.46,1662.51ZM2398.06,1662.51L2432.73,1662.51L2432.73,1849.18L2398.06,1849.18L2398.06,1662.51ZM2523.13,1851.85C2508.73,1851.85 2494.82,1849.8 2481.4,1845.71C2467.97,1841.62 2457.35,1836.2 2449.53,1829.45L2461.53,1802.51C2469.17,1808.56 2478.55,1813.49 2489.66,1817.31C2500.77,1821.14 2511.93,1823.05 2523.13,1823.05C2537,1823.05 2547.35,1820.83 2554.2,1816.38C2561.04,1811.94 2564.46,1806.07 2564.46,1798.78C2564.46,1793.45 2562.55,1789.05 2558.73,1785.58C2554.91,1782.11 2550.06,1779.4 2544.2,1777.45C2538.33,1775.49 2530.33,1773.27 2520.2,1770.78C2505.97,1767.4 2494.46,1764.03 2485.66,1760.65C2476.86,1757.27 2469.31,1751.98 2463,1744.78C2456.68,1737.58 2453.53,1727.85 2453.53,1715.58C2453.53,1705.27 2456.33,1695.89 2461.93,1687.45C2467.53,1679 2475.97,1672.29 2487.26,1667.31C2498.55,1662.34 2512.37,1659.85 2528.73,1659.85C2540.11,1659.85 2551.31,1661.27 2562.33,1664.11C2573.35,1666.96 2582.86,1671.05 2590.86,1676.38L2579.93,1703.31C2571.75,1698.51 2563.22,1694.87 2554.33,1692.38C2545.44,1689.89 2536.82,1688.65 2528.46,1688.65C2514.77,1688.65 2504.6,1690.96 2497.93,1695.58C2491.26,1700.2 2487.93,1706.34 2487.93,1713.98C2487.93,1719.31 2489.84,1723.67 2493.66,1727.05C2497.49,1730.42 2502.33,1733.09 2508.2,1735.05C2514.06,1737 2522.06,1739.23 2532.2,1741.71C2546.06,1744.91 2557.44,1748.25 2566.33,1751.71C2575.22,1755.18 2582.82,1760.47 2589.13,1767.58C2595.44,1774.69 2598.6,1784.29 2598.6,1796.38C2598.6,1806.69 2595.8,1816.03 2590.2,1824.38C2584.6,1832.74 2576.11,1839.4 2564.73,1844.38C2553.35,1849.36 2539.49,1851.85 2523.13,1851.85ZM2632.58,1850.71C2626.53,1850.71 2621.38,1848.62 2617.11,1844.45C2612.84,1840.27 2610.71,1834.98 2610.71,1828.58C2610.71,1822 2612.8,1816.67 2616.98,1812.58C2621.16,1808.49 2626.36,1806.45 2632.58,1806.45C2638.8,1806.45 2644,1808.49 2648.18,1812.58C2652.36,1816.67 2654.44,1822 2654.44,1828.58C2654.44,1834.98 2652.31,1840.27 2648.04,1844.45C2643.78,1848.62 2638.62,1850.71 2632.58,1850.71ZM2766.43,1851.85C2747.58,1851.85 2730.56,1847.71 2715.36,1839.45C2700.16,1831.18 2688.25,1819.76 2679.63,1805.18C2671.01,1790.6 2666.69,1774.16 2666.69,1755.85C2666.69,1737.54 2671.05,1721.09 2679.76,1706.51C2688.47,1691.94 2700.43,1680.51 2715.63,1672.25C2730.83,1663.98 2747.85,1659.85 2766.69,1659.85C2781.98,1659.85 2795.94,1662.51 2808.56,1667.85C2821.18,1673.18 2831.85,1680.91 2840.56,1691.05L2818.16,1712.11C2804.65,1697.54 2788.03,1690.25 2768.29,1690.25C2755.49,1690.25 2744.03,1693.05 2733.89,1698.65C2723.76,1704.25 2715.85,1712.03 2710.16,1721.98C2704.47,1731.94 2701.63,1743.23 2701.63,1755.85C2701.63,1768.47 2704.47,1779.76 2710.16,1789.71C2715.85,1799.67 2723.76,1807.45 2733.89,1813.05C2744.03,1818.65 2755.49,1821.45 2768.29,1821.45C2788.03,1821.45 2804.65,1814.07 2818.16,1799.31L2840.56,1820.65C2831.85,1830.78 2821.14,1838.51 2808.43,1843.85C2795.72,1849.18 2781.72,1851.85 2766.43,1851.85ZM3246.72,1849.18L3246.45,1725.45L3185.12,1827.85L3169.65,1827.85L3108.32,1727.05L3108.32,1849.18L3075.25,1849.18L3075.25,1662.51L3103.78,1662.51L3177.92,1786.25L3250.72,1662.51L3279.25,1662.51L3279.52,1849.18L3246.72,1849.18ZM414.52,1596.01L529.518,1828.73L515.143,1857.82L414.52,1654.19L313.893,1857.82L299.518,1828.73L414.52,1596.01ZM414.519,1712.37L500.768,1886.91L486.392,1916.01L414.519,1770.55L342.642,1916L328.268,1886.91L414.519,1712.37Z" />
            </g>
        </g>
    </g>
</svg>
